<svg id="Laag_3" data-name="Laag 3" xmlns="http://www.w3.org/2000/svg" viewBox="0 0 905 527"><defs><style>.cls-1,.cls-2{fill:none;stroke-miterlimit:10;stroke-width:14px;}.cls-1{stroke:#fff;}.cls-2{stroke:#10b7a1;}.cls-3{fill:#fff;}.cls-4{fill:#f9f9f9;}</style></defs><title>logo-white</title><path class="cls-1" d="M799.5,13h-620A135.5,135.5,0,1,0,311.55,179h355.9A135.51,135.51,0,1,0,799.5,13Z" transform="translate(-37 -6)"/><path class="cls-1" d="M312.28,176.92c10.9-56.24-9.91-88.89-34.44-107.62" transform="translate(-37 -6)"/><path class="cls-1" d="M666.82,176.92C656,121.23,674,90.15,701.25,69.3" transform="translate(-37 -6)"/><path class="cls-2" d="M312,179" transform="translate(-37 -6)"/><path class="cls-1" d="M489.5,179" transform="translate(-37 -6)"/><path class="cls-2" d="M489.5,281.42" transform="translate(-37 -6)"/><path class="cls-3" d="M643.58,254.16c0-10-3.13-18.16-7-18.16s-7,8.13-7,18.16c0,1.18,0,2.33.13,3.44-.08,1-.13,2-.13,3V460.36c0,1,0,2.06.13,3-.08,1.12-.13,2.27-.13,3.44,0,10,3.13,18.16,7,18.16s7-8.13,7-18.16c0-1.18,0-2.33-.13-3.44.08-1,.13-2,.13-3V260.64c0-1,0-2.06-.13-3C643.54,256.48,643.58,255.34,643.58,254.16Z" transform="translate(-37 -6)"/><path class="cls-3" d="M355.58,254.16c0-10-3.13-18.16-7-18.16s-7,8.13-7,18.16c0,1.18,0,2.33.13,3.44-.08,1-.13,2-.13,3V460.36c0,1,0,2.06.13,3-.08,1.12-.13,2.27-.13,3.44,0,10,3.13,18.16,7,18.16s7-8.13,7-18.16c0-1.18,0-2.33-.13-3.44.08-1,.13-2,.13-3V260.64c0-1,0-2.06-.13-3C355.54,256.48,355.58,255.34,355.58,254.16Z" transform="translate(-37 -6)"/><path class="cls-3" d="M451.58,302.16c0-10-3.13-18.16-7-18.16s-7,8.13-7,18.16c0,1.18,0,2.33.13,3.44-.08,1-.13,2-.13,3V508.36c0,1,0,2.06.13,3-.08,1.12-.13,2.27-.13,3.44,0,10,3.13,18.16,7,18.16s7-8.13,7-18.16c0-1.18,0-2.33-.13-3.44.08-1,.13-2,.13-3V308.64c0-1,0-2.06-.13-3C451.54,304.48,451.58,303.34,451.58,302.16Z" transform="translate(-37 -6)"/><path class="cls-3" d="M547.58,302.16c0-10-3.13-18.16-7-18.16s-7,8.13-7,18.16c0,1.18,0,2.33.13,3.44-.08,1-.13,2-.13,3V508.36c0,1,0,2.06.13,3-.08,1.12-.13,2.27-.13,3.44,0,10,3.13,18.16,7,18.16s7-8.13,7-18.16c0-1.18,0-2.33-.13-3.44.08-1,.13-2,.13-3V308.64c0-1,0-2.06-.13-3C547.54,304.48,547.58,303.34,547.58,302.16Z" transform="translate(-37 -6)"/><circle class="cls-4" cx="664.58" cy="63" r="7"/><circle class="cls-4" cx="240.58" cy="63" r="7"/></svg>